<?xml version="1.0" encoding="utf-8"?>
<!-- Generator: Adobe Illustrator 25.2.0, SVG Export Plug-In . SVG Version: 6.00 Build 0)  -->
<svg version="1.1" id="Layer_1" xmlns="http://www.w3.org/2000/svg" xmlns:xlink="http://www.w3.org/1999/xlink" x="0px" y="0px"
	 viewBox="0 0 116.25 76.63" style="enable-background:new 0 0 116.25 76.63;" xml:space="preserve">
<style type="text/css">
	.st0{fill:url(#XMLID_2_);}
	.st1{fill:url(#XMLID_3_);}
	.st2{fill:url(#XMLID_4_);}
	.st3{fill:url(#XMLID_5_);}
	.st4{fill:url(#XMLID_6_);}
	.st5{fill:url(#XMLID_7_);}
	.st6{fill:url(#XMLID_8_);}
	.st7{fill:url(#XMLID_9_);}
	.st8{fill:url(#XMLID_10_);}
	.st9{fill:url(#XMLID_11_);}
	.st10{fill:url(#XMLID_12_);}
	.st11{fill:url(#XMLID_13_);}
	.st12{fill:url(#XMLID_14_);}
	.st13{fill:url(#XMLID_15_);}
	.st14{fill:url(#XMLID_16_);}
	.st15{fill:#EDEDED;}
	.st16{fill:#DADADA;}
	.st17{fill:url(#XMLID_17_);}
	.st18{fill:url(#XMLID_18_);}
	.st19{fill:#F6F6F6;}
	.st20{fill:#FFFFFF;}
	.st21{fill:url(#XMLID_19_);}
	.st22{fill:url(#XMLID_20_);}
	.st23{fill:url(#XMLID_21_);}
	.st24{fill:url(#XMLID_22_);}
	.st25{fill:url(#XMLID_23_);}
	.st26{fill:url(#XMLID_24_);}
</style>
<g id="XMLID_1711_">
	<g id="XMLID_1730_">
		<g id="XMLID_1739_">
			
				<linearGradient id="XMLID_2_" gradientUnits="userSpaceOnUse" x1="810.2832" y1="412.6436" x2="796.5157" y2="398.8761" gradientTransform="matrix(-0.7071 0.7071 0.7071 0.7071 387.6809 -799.6415)">
				<stop  offset="0.0187" style="stop-color:#0045DA"/>
				<stop  offset="0.4973" style="stop-color:#B7E2FA"/>
				<stop  offset="1" style="stop-color:#DCF1FD"/>
			</linearGradient>
			<path id="XMLID_1746_" class="st0" d="M115.72,64.82l0.25-0.25c0.36-0.36,0.36-0.95,0-1.31L98.61,45.89
				c-0.36-0.36-0.95-0.36-1.31,0l-0.25,0.25c-0.36,0.36-0.36,0.95,0,1.31l17.37,17.37C114.77,65.18,115.36,65.18,115.72,64.82z"/>
			
				<linearGradient id="XMLID_3_" gradientUnits="userSpaceOnUse" x1="826.3417" y1="412.1133" x2="812.5742" y2="398.3457" gradientTransform="matrix(-0.7071 0.7071 0.7071 0.7071 387.6809 -799.6415)">
				<stop  offset="0.0187" style="stop-color:#0045DA"/>
				<stop  offset="0.4973" style="stop-color:#B7E2FA"/>
				<stop  offset="1" style="stop-color:#DCF1FD"/>
			</linearGradient>
			<path id="XMLID_1745_" class="st1" d="M103.99,75.8l0.25-0.25c0.36-0.36,0.36-0.95,0-1.31L86.88,56.87
				c-0.36-0.36-0.95-0.36-1.31,0l-0.25,0.25c-0.36,0.36-0.36,0.95,0,1.31l17.37,17.37C103.05,76.16,103.63,76.16,103.99,75.8z"/>
			
				<linearGradient id="XMLID_4_" gradientUnits="userSpaceOnUse" x1="818.3089" y1="417.3318" x2="804.5414" y2="403.5643" gradientTransform="matrix(-0.7071 0.7071 0.7071 0.7071 387.6809 -799.6415)">
				<stop  offset="0.0187" style="stop-color:#0045DA"/>
				<stop  offset="0.4973" style="stop-color:#B7E2FA"/>
				<stop  offset="1" style="stop-color:#DCF1FD"/>
			</linearGradient>
			<path id="XMLID_1744_" class="st2" d="M113.36,73.81l0.25-0.25c0.36-0.36,0.36-0.95,0-1.31L96.25,54.88
				c-0.36-0.36-0.95-0.36-1.31,0l-0.25,0.25c-0.36,0.36-0.36,0.95,0,1.31l17.37,17.37C112.41,74.17,113,74.17,113.36,73.81z"/>
			
				<linearGradient id="XMLID_5_" gradientUnits="userSpaceOnUse" x1="814.2978" y1="405.0757" x2="800.525" y2="391.3029" gradientTransform="matrix(-0.7071 0.7071 0.7071 0.7071 387.6809 -799.6415)">
				<stop  offset="0.0187" style="stop-color:#0045DA"/>
				<stop  offset="0.4973" style="stop-color:#B7E2FA"/>
				<stop  offset="1" style="stop-color:#DCF1FD"/>
			</linearGradient>
			<path id="XMLID_1743_" class="st3" d="M107.53,62.3l0.25-0.25c0.36-0.36,0.36-0.95,0-1.31L90.42,43.37
				c-0.36-0.36-0.95-0.36-1.31,0l-0.25,0.25c-0.36,0.36-0.36,0.95,0,1.31l17.37,17.37C106.58,62.67,107.17,62.67,107.53,62.3z"/>
			
				<linearGradient id="XMLID_6_" gradientUnits="userSpaceOnUse" x1="830.3546" y1="408.8925" x2="816.5871" y2="395.1248" gradientTransform="matrix(-0.7071 0.7071 0.7071 0.7071 387.6809 -799.6415)">
				<stop  offset="0.0187" style="stop-color:#0045DA"/>
				<stop  offset="0.4973" style="stop-color:#B7E2FA"/>
				<stop  offset="1" style="stop-color:#DCF1FD"/>
			</linearGradient>
			<path id="XMLID_1742_" class="st4" d="M98.88,76.36l0.25-0.25c0.36-0.36,0.36-0.95,0-1.31L81.76,57.43
				c-0.36-0.36-0.95-0.36-1.31,0l-0.25,0.25c-0.36,0.36-0.36,0.95,0,1.31l17.37,17.37C97.93,76.72,98.52,76.72,98.88,76.36z"/>
			
				<linearGradient id="XMLID_7_" gradientUnits="userSpaceOnUse" x1="834.364" y1="401.3191" x2="820.5964" y2="387.5518" gradientTransform="matrix(-0.7071 0.7071 0.7071 0.7071 387.6809 -799.6415)">
				<stop  offset="0.0187" style="stop-color:#0045DA"/>
				<stop  offset="0.4973" style="stop-color:#B7E2FA"/>
				<stop  offset="1" style="stop-color:#DCF1FD"/>
			</linearGradient>
			<path id="XMLID_1741_" class="st5" d="M90.69,73.84l0.25-0.25c0.36-0.36,0.36-0.95,0-1.31L73.57,54.91
				c-0.36-0.36-0.95-0.36-1.31,0l-0.25,0.25c-0.36,0.36-0.36,0.95,0,1.31l17.37,17.37C89.74,74.2,90.33,74.2,90.69,73.84z"/>
			
				<linearGradient id="XMLID_8_" gradientUnits="userSpaceOnUse" x1="822.3245" y1="409.2273" x2="808.5507" y2="395.4537" gradientTransform="matrix(-0.7071 0.7071 0.7071 0.7071 387.6809 -799.6415)">
				<stop  offset="0.0187" style="stop-color:#0045DA"/>
				<stop  offset="0.4973" style="stop-color:#B7E2FA"/>
				<stop  offset="1" style="stop-color:#DCF1FD"/>
			</linearGradient>
			<path id="XMLID_1740_" class="st6" d="M104.79,70.92l0.25-0.25c0.36-0.36,0.36-0.95,0-1.31L87.68,51.98
				c-0.36-0.36-0.95-0.36-1.31,0l-0.25,0.25c-0.36,0.36-0.36,0.95,0,1.31l17.37,17.37C103.84,71.28,104.43,71.28,104.79,70.92z"/>
		</g>
		<g id="XMLID_1731_">
			
				<linearGradient id="XMLID_9_" gradientUnits="userSpaceOnUse" x1="838.6879" y1="384.2389" x2="824.9204" y2="370.4713" gradientTransform="matrix(-0.7071 0.7071 0.7071 0.7071 387.6809 -799.6415)">
				<stop  offset="0.0187" style="stop-color:#0045DA"/>
				<stop  offset="0.4973" style="stop-color:#B7E2FA"/>
				<stop  offset="1" style="stop-color:#DCF1FD"/>
			</linearGradient>
			<path id="XMLID_1738_" class="st7" d="M75.55,64.82l0.25-0.25c0.36-0.36,0.36-0.95,0-1.31L58.44,45.89
				c-0.36-0.36-0.95-0.36-1.31,0l-0.25,0.25c-0.36,0.36-0.36,0.95,0,1.31l17.37,17.37C74.61,65.18,75.19,65.18,75.55,64.82z"/>
			
				<linearGradient id="XMLID_10_" gradientUnits="userSpaceOnUse" x1="854.7429" y1="383.7121" x2="840.9755" y2="369.9445" gradientTransform="matrix(-0.7071 0.7071 0.7071 0.7071 387.6809 -799.6415)">
				<stop  offset="0.0187" style="stop-color:#0045DA"/>
				<stop  offset="0.4973" style="stop-color:#B7E2FA"/>
				<stop  offset="1" style="stop-color:#DCF1FD"/>
			</linearGradient>
			<path id="XMLID_1737_" class="st8" d="M63.83,75.8l0.25-0.25c0.36-0.36,0.36-0.95,0-1.31L46.71,56.87
				c-0.36-0.36-0.95-0.36-1.31,0l-0.25,0.25c-0.36,0.36-0.36,0.95,0,1.31L62.52,75.8C62.88,76.16,63.46,76.16,63.83,75.8z"/>
			
				<linearGradient id="XMLID_11_" gradientUnits="userSpaceOnUse" x1="846.7137" y1="388.927" x2="832.9462" y2="375.1595" gradientTransform="matrix(-0.7071 0.7071 0.7071 0.7071 387.6809 -799.6415)">
				<stop  offset="0.0187" style="stop-color:#0045DA"/>
				<stop  offset="0.4973" style="stop-color:#B7E2FA"/>
				<stop  offset="1" style="stop-color:#DCF1FD"/>
			</linearGradient>
			<path id="XMLID_1736_" class="st9" d="M73.19,73.81l0.25-0.25c0.36-0.36,0.36-0.95,0-1.31L56.08,54.88
				c-0.36-0.36-0.95-0.36-1.31,0l-0.25,0.25c-0.36,0.36-0.36,0.95,0,1.31l17.37,17.37C72.25,74.17,72.83,74.17,73.19,73.81z"/>
			
				<linearGradient id="XMLID_12_" gradientUnits="userSpaceOnUse" x1="842.7026" y1="376.6711" x2="828.9297" y2="362.8981" gradientTransform="matrix(-0.7071 0.7071 0.7071 0.7071 387.6809 -799.6415)">
				<stop  offset="0.0187" style="stop-color:#0045DA"/>
				<stop  offset="0.4973" style="stop-color:#B7E2FA"/>
				<stop  offset="1" style="stop-color:#DCF1FD"/>
			</linearGradient>
			<path id="XMLID_1735_" class="st10" d="M67.36,62.3l0.25-0.25c0.36-0.36,0.36-0.95,0-1.31L50.25,43.37
				c-0.36-0.36-0.95-0.36-1.31,0l-0.25,0.25c-0.36,0.36-0.36,0.95,0,1.31L66.05,62.3C66.42,62.67,67,62.67,67.36,62.3z"/>
			
				<linearGradient id="XMLID_13_" gradientUnits="userSpaceOnUse" x1="858.7559" y1="380.491" x2="844.9883" y2="366.7238" gradientTransform="matrix(-0.7071 0.7071 0.7071 0.7071 387.6809 -799.6415)">
				<stop  offset="0.0187" style="stop-color:#0045DA"/>
				<stop  offset="0.4973" style="stop-color:#B7E2FA"/>
				<stop  offset="1" style="stop-color:#DCF1FD"/>
			</linearGradient>
			<path id="XMLID_1734_" class="st11" d="M58.71,76.36l0.25-0.25c0.36-0.36,0.36-0.95,0-1.31L41.6,57.43
				c-0.36-0.36-0.95-0.36-1.31,0l-0.25,0.25c-0.36,0.36-0.36,0.95,0,1.31L57.4,76.36C57.76,76.72,58.35,76.72,58.71,76.36z"/>
			
				<linearGradient id="XMLID_14_" gradientUnits="userSpaceOnUse" x1="862.7687" y1="372.9144" x2="849.0012" y2="359.1469" gradientTransform="matrix(-0.7071 0.7071 0.7071 0.7071 387.6809 -799.6415)">
				<stop  offset="0.0187" style="stop-color:#0045DA"/>
				<stop  offset="0.4973" style="stop-color:#B7E2FA"/>
				<stop  offset="1" style="stop-color:#DCF1FD"/>
			</linearGradient>
			<path id="XMLID_1733_" class="st12" d="M50.52,73.84l0.25-0.25c0.36-0.36,0.36-0.95,0-1.31L33.4,54.91
				c-0.36-0.36-0.95-0.36-1.31,0l-0.25,0.25c-0.36,0.36-0.36,0.95,0,1.31l17.37,17.37C49.57,74.2,50.16,74.2,50.52,73.84z"/>
			
				<linearGradient id="XMLID_15_" gradientUnits="userSpaceOnUse" x1="850.7292" y1="380.8226" x2="836.9555" y2="367.0489" gradientTransform="matrix(-0.7071 0.7071 0.7071 0.7071 387.6809 -799.6415)">
				<stop  offset="0.0187" style="stop-color:#0045DA"/>
				<stop  offset="0.4973" style="stop-color:#B7E2FA"/>
				<stop  offset="1" style="stop-color:#DCF1FD"/>
			</linearGradient>
			<path id="XMLID_1732_" class="st13" d="M64.62,70.92l0.25-0.25c0.36-0.36,0.36-0.95,0-1.31L47.51,51.98
				c-0.36-0.36-0.95-0.36-1.31,0l-0.25,0.25c-0.36,0.36-0.36,0.95,0,1.31l17.37,17.37C63.67,71.28,64.26,71.28,64.62,70.92z"/>
		</g>
	</g>
	
		<radialGradient id="XMLID_16_" cx="20.4008" cy="786.6796" r="47.0819" gradientTransform="matrix(1 0 0 1 0 -766)" gradientUnits="userSpaceOnUse">
		<stop  offset="0" style="stop-color:#EDEDED"/>
		<stop  offset="1" style="stop-color:#9D9D9C"/>
	</radialGradient>
	<path id="XMLID_1729_" class="st14" d="M12.64,17.54c0.04,0,0.07,0.01,0.11,0.01c-0.07-0.6-0.11-1.2-0.11-1.82
		C12.64,7.04,19.68,0,28.37,0c7.53,0,13.82,5.29,15.36,12.36c1.91-1.16,4.14-1.84,6.54-1.84c6.98,0,12.64,5.66,12.64,12.64
		c0,0.25-0.02,0.49-0.04,0.74c0.6-0.11,1.23-0.18,1.86-0.18c5.51,0,9.97,4.46,9.97,9.97s-4.46,9.97-9.97,9.97
		c-1.4,0-2.73-0.29-3.94-0.81c-2.27,2.15-5.32,3.48-8.69,3.48c-0.41,0-0.82-0.02-1.23-0.06c-2.32,2.7-5.75,4.42-9.59,4.42
		c-3.12,0-5.97-1.14-8.18-3.01c-2.15,1.7-4.87,2.73-7.83,2.73c-5.2,0-9.67-3.14-11.6-7.64c-0.34,0.03-0.68,0.05-1.03,0.05
		C5.66,42.82,0,37.16,0,30.18S5.66,17.54,12.64,17.54z"/>
	<path id="XMLID_1728_" class="st15" d="M42.93,9.8C40.59,4.05,34.95,0,28.37,0c-8.69,0-15.73,7.04-15.73,15.73
		c0,0.62,0.04,1.22,0.11,1.82c-0.04,0-0.07-0.01-0.11-0.01C5.66,17.54,0,23.2,0,30.18s5.66,12.64,12.64,12.64c0.02,0,0.04,0,0.06,0
		C28.79,39.7,41.22,26.34,42.93,9.8z"/>
	<path id="XMLID_1727_" class="st16" d="M6.37,21.7c1.97-0.61,3.72,1.42,2.48,3.25c-0.35,0.52-0.93,0.89-1.49,1.2
		c-0.78,0.43-1.61,0.79-2.4,0.84c-2.3,0.15-2.15-1.8-0.93-3.5C4.6,22.69,5.45,21.98,6.37,21.7z"/>
	<path id="XMLID_1726_" class="st16" d="M23,2.29c2.85-0.64,5.14,2.45,3.24,4.91c-0.54,0.7-1.39,1.17-2.22,1.55
		c-1.14,0.52-2.35,0.95-3.48,0.93c-3.28-0.05-2.9-2.82-1.02-5.1C20.4,3.51,21.67,2.59,23,2.29z"/>
	
		<linearGradient id="XMLID_17_" gradientUnits="userSpaceOnUse" x1="25.73" y1="797.42" x2="61.2369" y2="797.42" gradientTransform="matrix(1 0 0 1 0 -766)">
		<stop  offset="0" style="stop-color:#FFFFFF"/>
		<stop  offset="1" style="stop-color:#DADADA"/>
	</linearGradient>
	<path id="XMLID_1725_" class="st17" d="M74.71,33.69c0-5.51-4.46-9.97-9.97-9.97c-0.64,0-1.26,0.07-1.86,0.18
		c0.01-0.25,0.04-0.49,0.04-0.74c0-4.72-2.59-8.83-6.41-11c-6.15,2-10.6,7.78-10.6,14.6c0,1.61,0.25,3.16,0.71,4.62
		c-3.42,1.42-5.82,4.79-5.82,8.72c0,0.76,0.1,1.49,0.27,2.2h-8c-4.05,0-7.34,3.29-7.34,7.34l0,0c0,0.25,0.01,0.51,0.04,0.75
		c2.78-0.1,5.32-1.11,7.36-2.72c2.2,1.87,5.06,3.01,8.18,3.01c3.84,0,7.27-1.72,9.59-4.42c0.4,0.04,0.81,0.06,1.23,0.06
		c3.37,0,6.43-1.33,8.69-3.48c1.21,0.52,2.54,0.81,3.94,0.81C70.24,43.66,74.71,39.2,74.71,33.69z"/>
	
		<linearGradient id="XMLID_18_" gradientUnits="userSpaceOnUse" x1="29.9" y1="802.315" x2="86.277" y2="802.315" gradientTransform="matrix(1 0 0 1 0 -766)">
		<stop  offset="0" style="stop-color:#DADADA"/>
		<stop  offset="1" style="stop-color:#FFFFFF"/>
	</linearGradient>
	<path id="XMLID_1724_" class="st18" d="M101.77,44.38c0.16-0.7,0.26-1.42,0.26-2.16c0-5.22-4.23-9.44-9.44-9.44
		c-0.87,0-1.71,0.13-2.52,0.35c-0.78-4.42-4.64-7.79-9.29-7.79c-0.14,0-0.27,0.01-0.41,0.02c-1.59-6.78-7.67-11.83-14.94-11.83
		c-8.48,0-15.35,6.87-15.35,15.35c0,1.61,0.25,3.16,0.71,4.62c-3.42,1.42-5.82,4.79-5.82,8.72c0,0.76,0.1,1.49,0.27,2.2h-8
		c-4.05,0-7.34,3.29-7.34,7.34l0,0c0,4.05,3.29,7.34,7.34,7.34h9.66h27.28h26.08c4.11,0,7.44-3.33,7.44-7.44l0,0
		C107.7,48.08,105.16,45.08,101.77,44.38z"/>
	<path id="XMLID_1723_" class="st15" d="M101.77,44.38c0.16-0.7,0.26-1.42,0.26-2.16c0-5.22-4.23-9.44-9.44-9.44
		c-0.87,0-1.71,0.13-2.52,0.35c-0.78-4.39-4.58-7.73-9.17-7.78c-0.27,14.8-8.89,27.55-21.34,33.76h14.62h26.08
		c4.11,0,7.44-3.33,7.44-7.44l0,0C107.7,48.08,105.16,45.08,101.77,44.38z"/>
	<path id="XMLID_1722_" class="st19" d="M100.33,39.43c0.51,2-1.61,3.64-3.37,2.32c-0.5-0.37-0.85-0.97-1.13-1.55
		c-0.39-0.8-0.71-1.65-0.72-2.44c-0.03-2.31,1.91-2.06,3.55-0.76C99.43,37.6,100.1,38.49,100.33,39.43z"/>
	<path id="XMLID_1721_" class="st19" d="M35.15,45.86c1.97-0.61,3.72,1.42,2.48,3.25c-0.35,0.52-0.93,0.89-1.49,1.2
		c-0.78,0.43-1.61,0.79-2.4,0.84c-2.3,0.15-2.15-1.8-0.93-3.5C33.38,46.85,34.23,46.14,35.15,45.86z"/>
	<path id="XMLID_1720_" class="st20" d="M60.67,15.81c2.85-0.64,5.14,2.45,3.24,4.91c-0.54,0.7-1.39,1.17-2.22,1.55
		c-1.14,0.52-2.35,0.95-3.48,0.93c-3.28-0.05-2.9-2.82-1.02-5.1C58.07,17.02,59.34,16.1,60.67,15.81z"/>
	<g id="XMLID_1717_">
		
			<radialGradient id="XMLID_19_" cx="62.9618" cy="803.2121" r="1.4157" gradientTransform="matrix(1 0 0 1 0 -766)" gradientUnits="userSpaceOnUse">
			<stop  offset="0" style="stop-color:#3C3C3B"/>
			<stop  offset="1" style="stop-color:#000000"/>
		</radialGradient>
		<circle id="XMLID_1719_" class="st21" cx="62.44" cy="37.73" r="1.42"/>
		
			<radialGradient id="XMLID_20_" cx="80.9773" cy="803.1003" r="1.4157" gradientTransform="matrix(1 0 0 1 0 -766)" gradientUnits="userSpaceOnUse">
			<stop  offset="0" style="stop-color:#3C3C3B"/>
			<stop  offset="1" style="stop-color:#000000"/>
		</radialGradient>
		<circle id="XMLID_1718_" class="st22" cx="80.57" cy="37.73" r="1.42"/>
	</g>
	<g id="XMLID_1714_">
		
			<radialGradient id="XMLID_21_" cx="19.5786" cy="786.8878" r="1.4157" gradientTransform="matrix(1 0 0 1 0 -766)" gradientUnits="userSpaceOnUse">
			<stop  offset="0" style="stop-color:#3C3C3B"/>
			<stop  offset="1" style="stop-color:#000000"/>
		</radialGradient>
		<path id="XMLID_1716_" class="st23" d="M20.47,21.41c0,0.78-0.63,1.42-1.42,1.42c-0.78,0-1.42-0.63-1.42-1.42
			c0-0.78,0.63-1.42,1.42-1.42S20.47,20.63,20.47,21.41z"/>
		
			<radialGradient id="XMLID_22_" cx="37.5942" cy="786.776" r="1.4157" gradientTransform="matrix(1 0 0 1 0 -766)" gradientUnits="userSpaceOnUse">
			<stop  offset="0" style="stop-color:#3C3C3B"/>
			<stop  offset="1" style="stop-color:#000000"/>
		</radialGradient>
		<path id="XMLID_1715_" class="st24" d="M38.6,21.41c0,0.78-0.63,1.42-1.42,1.42c-0.78,0-1.42-0.63-1.42-1.42
			c0-0.78,0.63-1.42,1.42-1.42C37.97,19.99,38.6,20.63,38.6,21.41z"/>
	</g>
	
		<radialGradient id="XMLID_23_" cx="1008.8126" cy="1393.6478" r="7.4566" gradientTransform="matrix(1 0 0 1 -980.8268 -1364.6597)" gradientUnits="userSpaceOnUse">
		<stop  offset="0.2927" style="stop-color:#3C3C3B"/>
		<stop  offset="1" style="stop-color:#000000"/>
	</radialGradient>
	<path id="XMLID_1713_" class="st25" d="M28.12,31.09c2.48,0,4.49-2.01,4.49-4.49h-8.99C23.63,29.08,25.64,31.09,28.12,31.09z"/>
	
		<radialGradient id="XMLID_24_" cx="1052.2042" cy="1410.2229" r="7.4565" gradientTransform="matrix(1 0 0 1 -980.8268 -1364.6597)" gradientUnits="userSpaceOnUse">
		<stop  offset="0.2927" style="stop-color:#3C3C3B"/>
		<stop  offset="1" style="stop-color:#000000"/>
	</radialGradient>
	<path id="XMLID_1712_" class="st26" d="M71.51,47.67c2.48,0,4.49-2.01,4.49-4.49h-8.99C67.02,45.66,69.03,47.67,71.51,47.67z"/>
</g>
</svg>
