<?xml version="1.0" encoding="utf-8"?>
<!-- Generator: Adobe Illustrator 25.2.0, SVG Export Plug-In . SVG Version: 6.00 Build 0)  -->
<svg version="1.1" id="Layer_1" xmlns="http://www.w3.org/2000/svg" xmlns:xlink="http://www.w3.org/1999/xlink" x="0px" y="0px"
	 viewBox="0 0 107.7 86.83" style="enable-background:new 0 0 107.7 86.83;" xml:space="preserve">
<style type="text/css">
	.st0{fill:#9D9D9C;}
	.st1{fill:url(#XMLID_2_);}
	.st2{fill:url(#XMLID_3_);}
	.st3{fill:url(#XMLID_4_);}
	.st4{fill:url(#XMLID_5_);}
	.st5{opacity:0.53;fill:url(#XMLID_6_);}
	.st6{fill:url(#XMLID_7_);}
	.st7{fill:#EDEDED;}
	.st8{opacity:0.44;fill:url(#XMLID_8_);}
	.st9{fill:url(#XMLID_9_);}
	.st10{fill:#F6F6F6;}
	.st11{fill:#DADADA;}
	.st12{fill:#B2B2B2;}
	.st13{fill:#FFFFFF;}
	.st14{fill:url(#XMLID_10_);}
	.st15{fill:url(#XMLID_11_);}
	.st16{fill:url(#XMLID_12_);}
	.st17{fill:url(#XMLID_13_);}
	.st18{fill:url(#XMLID_14_);}
	.st19{fill:url(#XMLID_15_);}
	.st20{fill:url(#XMLID_16_);}
	.st21{fill:url(#XMLID_17_);}
	.st22{fill:url(#XMLID_18_);}
</style>
<g id="XMLID_1439_">
	<path id="XMLID_1469_" class="st0" d="M106.25,24.74c0-4.48-3.63-8.12-8.12-8.12c-1.53,0-2.95,0.43-4.17,1.16
		c0.01-0.19,0.03-0.38,0.03-0.58c0-5.69-4.61-10.3-10.3-10.3c-2.06,0-3.97,0.61-5.58,1.65C75.54,3.48,70.28,0,64.2,0
		c-8.61,0-15.58,6.98-15.58,15.58c0,0.67,0.05,1.33,0.13,1.98c-2.71,0.71-4.99,2.49-6.34,4.87c-5.65,0.05-10.21,4.64-10.21,10.3
		c0,5.69,4.61,10.3,10.3,10.3c0.58,0,1.15-0.06,1.71-0.15c1.61,5.01,6.31,8.63,11.85,8.63c2.6,0,5.01-0.8,7.01-2.16
		c2.07,3.99,6.24,6.73,11.05,6.73c4.43,0,8.31-2.32,10.52-5.8c1.63,0.79,3.46,1.24,5.39,1.24c6.88,0,12.45-5.58,12.45-12.45
		c0-2.42-0.7-4.66-1.89-6.57C103.86,31.44,106.25,28.37,106.25,24.74z"/>
	<g id="XMLID_1464_">
		<g id="XMLID_1466_">
			<radialGradient id="XMLID_2_" cx="59.0834" cy="14.4692" r="1.4186" gradientUnits="userSpaceOnUse">
				<stop  offset="0" style="stop-color:#3C3C3B"/>
				<stop  offset="1" style="stop-color:#000000"/>
			</radialGradient>
			<circle id="XMLID_1468_" class="st1" cx="58.56" cy="14.99" r="1.42"/>
			<radialGradient id="XMLID_3_" cx="77.2108" cy="14.3571" r="1.4186" gradientUnits="userSpaceOnUse">
				<stop  offset="0" style="stop-color:#3C3C3B"/>
				<stop  offset="1" style="stop-color:#000000"/>
			</radialGradient>
			<circle id="XMLID_1467_" class="st2" cx="76.8" cy="14.99" r="1.42"/>
		</g>
		<radialGradient id="XMLID_4_" cx="67.5639" cy="20.3973" r="5.9124" gradientUnits="userSpaceOnUse">
			<stop  offset="0" style="stop-color:#3C3C3B"/>
			<stop  offset="1" style="stop-color:#000000"/>
		</radialGradient>
		<rect id="XMLID_1465_" x="63.8" y="19.81" class="st3" width="7.76" height="1.11"/>
	</g>
	<linearGradient id="XMLID_5_" gradientUnits="userSpaceOnUse" x1="32.1835" y1="36.3472" x2="106.247" y2="36.3472">
		<stop  offset="0.5257" style="stop-color:#9D9D9C"/>
		<stop  offset="1" style="stop-color:#878787"/>
	</linearGradient>
	<path id="XMLID_1463_" class="st4" d="M106.25,24.74c0-4.48-3.63-8.12-8.12-8.12c-1.48,0-2.86,0.41-4.05,1.1
		C89.11,29.5,77.45,37.77,63.86,37.77c-11.04,0-20.81-5.46-26.75-13.83c-2.95,1.81-4.92,5.07-4.92,8.78c0,5.69,4.61,10.3,10.3,10.3
		c0.58,0,1.15-0.06,1.71-0.15c1.61,5.01,6.31,8.63,11.85,8.63c2.6,0,5.01-0.8,7.01-2.16c2.07,3.99,6.24,6.73,11.05,6.73
		c4.43,0,8.31-2.32,10.52-5.8c1.63,0.79,3.46,1.24,5.39,1.24c6.88,0,12.45-5.58,12.45-12.45c0-2.42-0.7-4.66-1.89-6.57
		C103.86,31.44,106.25,28.37,106.25,24.74z"/>
	<linearGradient id="XMLID_6_" gradientUnits="userSpaceOnUse" x1="32.1835" y1="36.724" x2="82.5629" y2="36.724">
		<stop  offset="0" style="stop-color:#FFFFFF"/>
		<stop  offset="1" style="stop-color:#DADADA"/>
	</linearGradient>
	<path id="XMLID_1462_" class="st5" d="M94.2,39.63c-0.87,0-1.71,0.13-2.52,0.35c-0.78-4.42-4.64-7.79-9.29-7.79
		c-0.14,0-0.27,0.01-0.41,0.02c-1.59-6.78-7.67-11.83-14.94-11.83c-2.05,0-4.01,0.41-5.8,1.14c-2.31-2.55-5.65-4.15-9.36-4.15
		c-2.4,0-4.63,0.68-6.54,1.84c0-0.02-0.01-0.03-0.01-0.05c-1.19,0.86-2.2,1.97-2.93,3.26c-5.65,0.05-10.21,4.64-10.21,10.3
		c0,5.69,4.61,10.3,10.3,10.3c0.58,0,1.15-0.06,1.71-0.15c1.61,5.01,6.31,8.63,11.85,8.63c2.6,0,5.01-0.8,7.01-2.16
		c2.07,3.99,6.24,6.73,11.05,6.73c4.43,0,8.31-2.32,10.52-5.8c1.63,0.79,3.46,1.24,5.39,1.24c5.37,0,9.94-3.4,11.69-8.16
		C99.98,41.09,97.26,39.63,94.2,39.63z"/>
	<radialGradient id="XMLID_7_" cx="20.4008" cy="30.1598" r="47.082" gradientUnits="userSpaceOnUse">
		<stop  offset="0" style="stop-color:#EDEDED"/>
		<stop  offset="1" style="stop-color:#9D9D9C"/>
	</radialGradient>
	<path id="XMLID_1461_" class="st6" d="M12.64,27.02c0.04,0,0.07,0.01,0.11,0.01c-0.07-0.6-0.11-1.2-0.11-1.82
		c0-8.69,7.04-15.73,15.73-15.73c7.53,0,13.82,5.29,15.36,12.36c1.91-1.16,4.14-1.84,6.54-1.84c6.98,0,12.64,5.66,12.64,12.64
		c0,0.25-0.02,0.5-0.04,0.74c0.6-0.11,1.23-0.18,1.86-0.18c5.51,0,9.97,4.46,9.97,9.97s-4.46,9.97-9.97,9.97
		c-1.4,0-2.73-0.29-3.94-0.81c-2.27,2.15-5.32,3.48-8.69,3.48c-0.41,0-0.82-0.02-1.23-0.06c-2.32,2.7-5.75,4.42-9.59,4.42
		c-3.12,0-5.97-1.14-8.18-3.01c-2.15,1.71-4.87,2.73-7.83,2.73c-5.2,0-9.67-3.14-11.6-7.64c-0.34,0.03-0.68,0.05-1.03,0.05
		C5.66,52.3,0,46.64,0,39.66C0,32.68,5.66,27.02,12.64,27.02z"/>
	<path id="XMLID_1460_" class="st7" d="M42.93,19.28c-2.34-5.75-7.98-9.8-14.57-9.8c-8.69,0-15.73,7.04-15.73,15.73
		c0,0.62,0.04,1.22,0.11,1.82c-0.04,0-0.07-0.01-0.11-0.01C5.66,27.02,0,32.68,0,39.66C0,46.64,5.66,52.3,12.64,52.3
		c0.02,0,0.04,0,0.06,0C28.79,49.18,41.22,35.82,42.93,19.28z"/>
	<linearGradient id="XMLID_8_" gradientUnits="userSpaceOnUse" x1="25.7094" y1="40.9025" x2="61.2163" y2="40.9025">
		<stop  offset="0" style="stop-color:#FFFFFF"/>
		<stop  offset="1" style="stop-color:#DADADA"/>
	</linearGradient>
	<path id="XMLID_1459_" class="st8" d="M74.71,43.17c0-5.51-4.46-9.97-9.97-9.97c-0.64,0-1.26,0.07-1.86,0.18
		c0.01-0.25,0.04-0.49,0.04-0.74c0-4.72-2.59-8.83-6.41-11c-6.15,2-10.6,7.78-10.6,14.6c0,1.61,0.25,3.16,0.71,4.62
		c-3.42,1.42-5.82,4.79-5.82,8.72c0,0.76,0.1,1.49,0.27,2.2h-8c-4.05,0-7.34,3.29-7.34,7.34l0,0c0,0.25,0.01,0.51,0.04,0.75
		c2.78-0.1,5.32-1.11,7.36-2.72c2.2,1.87,5.06,3.01,8.18,3.01c3.84,0,7.27-1.72,9.59-4.42c0.4,0.04,0.81,0.06,1.23,0.06
		c3.37,0,6.43-1.33,8.69-3.48c1.21,0.52,2.54,0.81,3.94,0.81C70.24,53.14,74.71,48.68,74.71,43.17z"/>
	<linearGradient id="XMLID_9_" gradientUnits="userSpaceOnUse" x1="29.902" y1="45.7985" x2="86.279" y2="45.7985">
		<stop  offset="0" style="stop-color:#DADADA"/>
		<stop  offset="1" style="stop-color:#FFFFFF"/>
	</linearGradient>
	<path id="XMLID_1458_" class="st9" d="M101.77,53.86c0.16-0.7,0.26-1.42,0.26-2.16c0-5.22-4.23-9.44-9.44-9.44
		c-0.87,0-1.71,0.13-2.52,0.35c-0.78-4.42-4.64-7.79-9.29-7.79c-0.14,0-0.27,0.01-0.41,0.02c-1.59-6.78-7.67-11.83-14.94-11.83
		c-8.48,0-15.35,6.87-15.35,15.35c0,1.61,0.25,3.16,0.71,4.62c-3.42,1.42-5.82,4.79-5.82,8.72c0,0.76,0.1,1.49,0.27,2.2h-8
		c-4.05,0-7.34,3.29-7.34,7.34v0c0,4.05,3.29,7.34,7.34,7.34h9.66h27.28h26.08c4.11,0,7.44-3.33,7.44-7.44v0
		C107.7,57.56,105.16,54.56,101.77,53.86z"/>
	<path id="XMLID_1457_" class="st7" d="M101.77,53.86c0.16-0.7,0.26-1.42,0.26-2.16c0-5.22-4.23-9.44-9.44-9.44
		c-0.87,0-1.71,0.13-2.52,0.35c-0.78-4.39-4.58-7.73-9.17-7.78c-0.27,14.8-8.89,27.55-21.34,33.76h14.62h26.08
		c4.11,0,7.44-3.33,7.44-7.44v0C107.7,57.56,105.16,54.56,101.77,53.86z"/>
	<path id="XMLID_1456_" class="st10" d="M100.33,48.91c0.51,2-1.61,3.64-3.37,2.32c-0.5-0.37-0.85-0.97-1.13-1.55
		c-0.39-0.8-0.71-1.65-0.72-2.44c-0.03-2.31,1.91-2.06,3.55-0.76C99.43,47.09,100.1,47.98,100.33,48.91z"/>
	<path id="XMLID_1455_" class="st10" d="M35.15,55.34c1.97-0.61,3.72,1.42,2.48,3.25c-0.35,0.52-0.93,0.89-1.49,1.2
		c-0.78,0.43-1.61,0.79-2.4,0.84c-2.3,0.15-2.15-1.8-0.93-3.5C33.38,56.33,34.23,55.62,35.15,55.34z"/>
	<path id="XMLID_1454_" class="st11" d="M5.79,31.18c1.97-0.61,3.72,1.42,2.48,3.25c-0.35,0.52-0.93,0.89-1.49,1.2
		c-0.78,0.43-1.61,0.79-2.4,0.84c-2.3,0.15-2.15-1.8-0.93-3.5C4.02,32.17,4.87,31.46,5.79,31.18z"/>
	<path id="XMLID_1453_" class="st12" d="M55.93,4.18c1.97-0.61,3.72,1.42,2.48,3.25c-0.35,0.52-0.93,0.89-1.49,1.2
		c-0.78,0.43-1.61,0.79-2.4,0.84c-2.3,0.15-2.15-1.8-0.93-3.5C54.15,5.17,55.01,4.46,55.93,4.18z"/>
	<path id="XMLID_1452_" class="st13" d="M60.67,25.29c2.85-0.64,5.14,2.45,3.24,4.91c-0.54,0.7-1.39,1.17-2.22,1.55
		c-1.14,0.52-2.35,0.95-3.48,0.93c-3.28-0.05-2.9-2.82-1.02-5.1C58.07,26.5,59.34,25.58,60.67,25.29z"/>
	<path id="XMLID_1451_" class="st11" d="M21.95,12.97c2.85-0.64,5.14,2.45,3.24,4.91c-0.54,0.7-1.39,1.17-2.22,1.55
		c-1.14,0.52-2.35,0.95-3.48,0.93c-3.28-0.05-2.9-2.82-1.02-5.1C19.35,14.19,20.62,13.27,21.95,12.97z"/>
	<path id="XMLID_1450_" class="st12" d="M87.99,9.75c2.31,1.79,1.38,5.53-1.72,5.63c-0.88,0.03-1.79-0.33-2.61-0.73
		c-1.13-0.55-2.23-1.21-2.93-2.09c-2.05-2.56,0.33-4.03,3.28-4.04C85.4,8.52,86.92,8.91,87.99,9.75z"/>
	<g id="XMLID_1445_">
		<g id="XMLID_1447_">
			<radialGradient id="XMLID_10_" cx="17.6473" cy="31.5942" r="5.2921" gradientUnits="userSpaceOnUse">
				<stop  offset="0" style="stop-color:#3C3C3B"/>
				<stop  offset="1" style="stop-color:#000000"/>
			</radialGradient>
			<rect id="XMLID_1449_" x="14.28" y="31.07" class="st14" width="6.95" height="0.99"/>
			<radialGradient id="XMLID_11_" cx="37.5061" cy="31.5942" r="5.292" gradientUnits="userSpaceOnUse">
				<stop  offset="0" style="stop-color:#3C3C3B"/>
				<stop  offset="1" style="stop-color:#000000"/>
			</radialGradient>
			<rect id="XMLID_1448_" x="34.14" y="31.07" class="st15" width="6.95" height="0.99"/>
		</g>
		<radialGradient id="XMLID_12_" cx="27.5462" cy="38.7957" r="7.4565" gradientUnits="userSpaceOnUse">
			<stop  offset="0.2927" style="stop-color:#3C3C3B"/>
			<stop  offset="1" style="stop-color:#000000"/>
		</radialGradient>
		<path id="XMLID_1446_" class="st16" d="M27.68,40.9c2.48,0,4.49-2.01,4.49-4.49h-8.99C23.19,38.89,25.2,40.9,27.68,40.9z"/>
	</g>
	<g id="XMLID_1440_">
		<g id="XMLID_1442_">
			<radialGradient id="XMLID_13_" cx="60.3378" cy="46.8488" r="5.292" gradientUnits="userSpaceOnUse">
				<stop  offset="0" style="stop-color:#3C3C3B"/>
				<stop  offset="1" style="stop-color:#000000"/>
			</radialGradient>
			<rect id="XMLID_1444_" x="56.97" y="46.32" class="st17" width="6.95" height="0.99"/>
			<radialGradient id="XMLID_14_" cx="80.1965" cy="46.8488" r="5.2921" gradientUnits="userSpaceOnUse">
				<stop  offset="0" style="stop-color:#3C3C3B"/>
				<stop  offset="1" style="stop-color:#000000"/>
			</radialGradient>
			<rect id="XMLID_1443_" x="76.83" y="46.32" class="st18" width="6.95" height="0.99"/>
		</g>
		<radialGradient id="XMLID_15_" cx="70.2366" cy="54.0503" r="7.4565" gradientUnits="userSpaceOnUse">
			<stop  offset="0.2927" style="stop-color:#3C3C3B"/>
			<stop  offset="1" style="stop-color:#000000"/>
		</radialGradient>
		<path id="XMLID_1441_" class="st19" d="M70.37,56.16c2.48,0,4.49-2.01,4.49-4.49h-8.99C65.88,54.15,67.89,56.16,70.37,56.16z"/>
	</g>
</g>
<g id="XMLID_1396_">
	<radialGradient id="XMLID_16_" cx="34.5196" cy="75.3848" r="3.8852" gradientUnits="userSpaceOnUse">
		<stop  offset="0" style="stop-color:#D0EBFC"/>
		<stop  offset="1" style="stop-color:#FFFFFF"/>
	</radialGradient>
	<path id="XMLID_1425_" class="st20" d="M38.28,76.77l-0.42-0.66c-0.02-0.04-0.07-0.05-0.11-0.03l-0.56,0.25L36.6,76.1l0.69-0.3
		c0.05-0.02,0.07-0.07,0.05-0.12c-0.02-0.05-0.07-0.07-0.12-0.05L36.36,76l-0.23-0.09l0.13-0.35c0.02-0.05-0.01-0.1-0.05-0.12
		c-0.05-0.02-0.1,0.01-0.12,0.05l-0.13,0.35l-0.24-0.09l-0.16-1.07l0.19-0.15l0.23,0.29c0.02,0.03,0.05,0.04,0.09,0.03
		c0.02,0,0.03-0.01,0.04-0.02c0.04-0.03,0.05-0.09,0.02-0.13l-0.23-0.29l0.21-0.17l0.91,0.11c0.01,0,0.02,0,0.02,0
		c0.04-0.01,0.07-0.04,0.08-0.08c0.01-0.05-0.03-0.1-0.08-0.1l-0.72-0.08l0.48-0.38l0.61,0.07c0.01,0,0.02,0,0.02,0
		c0.04-0.01,0.07-0.03,0.08-0.07l0.21-0.75c0.01-0.03,0-0.06-0.02-0.08c-0.02-0.02-0.05-0.04-0.08-0.03l-0.78,0.03
		c-0.05,0-0.08,0.04-0.09,0.08l-0.07,0.61l-0.49,0.39l0.09-0.75c0.01-0.05-0.03-0.1-0.08-0.1c-0.05-0.01-0.1,0.03-0.1,0.08
		l-0.11,0.93l-0.2,0.16l-0.23-0.29c-0.03-0.04-0.09-0.05-0.13-0.01c-0.04,0.03-0.05,0.09-0.01,0.13l0.23,0.29l-0.19,0.15l-1.02-0.4
		l-0.04-0.25l0.37-0.05c0.05-0.01,0.08-0.05,0.08-0.1c-0.01-0.05-0.05-0.08-0.1-0.08l-0.37,0.05l-0.04-0.26l0.54-0.73
		c0.03-0.04,0.02-0.1-0.02-0.13c-0.04-0.03-0.1-0.02-0.13,0.02l-0.44,0.59l-0.09-0.6l0.37-0.49c0.03-0.04,0.02-0.09-0.01-0.12
		l-0.55-0.56c-0.02-0.02-0.05-0.03-0.08-0.03c-0.03,0-0.05,0.02-0.07,0.05l-0.37,0.69c-0.02,0.04-0.01,0.09,0.03,0.12l0.49,0.37
		l0.09,0.62l-0.6-0.45c-0.04-0.03-0.1-0.02-0.13,0.02c-0.03,0.04-0.02,0.1,0.02,0.13l0.75,0.56l0.04,0.25l-0.37,0.05
		c-0.05,0.01-0.08,0.05-0.08,0.1c0.01,0.05,0.05,0.08,0.1,0.08l0.37-0.05l0.04,0.25l-0.87,0.69l-0.23-0.09l0.13-0.35
		c0.02-0.05-0.01-0.1-0.05-0.12c-0.05-0.02-0.1,0.01-0.12,0.05l-0.13,0.35l-0.23-0.09l-0.38-0.86c-0.02-0.05-0.07-0.07-0.12-0.05
		c-0.05,0.02-0.07,0.07-0.05,0.12l0.3,0.69l-0.58-0.22l-0.25-0.56c-0.02-0.04-0.06-0.06-0.11-0.05l-0.75,0.2
		c-0.03,0.01-0.05,0.03-0.06,0.06c-0.01,0.03-0.01,0.06,0.01,0.08l0.42,0.66c0.02,0.03,0.06,0.05,0.09,0.04c0.01,0,0.02,0,0.02-0.01
		l0.56-0.25l0.57,0.22l-0.67,0.3c-0.05,0.02-0.07,0.07-0.05,0.12c0.02,0.04,0.06,0.06,0.1,0.05c0.01,0,0.02,0,0.02-0.01l0.84-0.37
		l0.25,0.1l-0.13,0.35c-0.02,0.05,0.01,0.1,0.05,0.12c0.02,0.01,0.03,0.01,0.05,0.01c0.03,0,0.06-0.03,0.07-0.06l0.13-0.35
		l0.24,0.09l0.16,1.06l-0.2,0.16l-0.23-0.29c-0.03-0.04-0.09-0.05-0.13-0.01c-0.04,0.03-0.05,0.09-0.01,0.13l0.23,0.29l-0.2,0.16
		l-0.93-0.11c-0.05-0.01-0.1,0.03-0.1,0.08c-0.01,0.05,0.03,0.1,0.08,0.1l0.75,0.09l-0.49,0.39L31.64,77
		c-0.05-0.01-0.09,0.02-0.1,0.07l-0.21,0.75c-0.01,0.03,0,0.06,0.02,0.08c0.02,0.02,0.05,0.04,0.08,0.03l0.78-0.03
		c0,0,0.01,0,0.01,0c0.04-0.01,0.08-0.04,0.08-0.08l0.07-0.61l0.48-0.38l-0.08,0.72c-0.01,0.05,0.03,0.1,0.08,0.1
		c0.01,0,0.02,0,0.02,0c0.04-0.01,0.07-0.04,0.08-0.08l0.11-0.91l0.21-0.17l0.23,0.29c0.02,0.03,0.05,0.04,0.09,0.03
		c0.02,0,0.03-0.01,0.04-0.02c0.04-0.03,0.05-0.09,0.01-0.13L33.4,76.4l0.21-0.16l1.01,0.4l0.04,0.25l-0.37,0.05
		c-0.05,0.01-0.08,0.05-0.08,0.1c0.01,0.05,0.05,0.08,0.1,0.08l0.37-0.05l0.04,0.25l-0.56,0.75c-0.03,0.04-0.02,0.1,0.02,0.13
		c0.02,0.02,0.04,0.02,0.07,0.02c0.02,0,0.05-0.02,0.06-0.04l0.45-0.6l0.09,0.62l-0.37,0.49c-0.03,0.04-0.02,0.09,0.01,0.12
		l0.55,0.56c0.02,0.02,0.05,0.03,0.08,0.03c0.03,0,0.05-0.02,0.07-0.05l0.37-0.69c0.02-0.04,0.01-0.09-0.03-0.12l-0.49-0.37
		l-0.09-0.6l0.59,0.44c0.02,0.02,0.04,0.02,0.07,0.02c0.02,0,0.05-0.02,0.06-0.04c0.03-0.04,0.02-0.1-0.02-0.13L34.9,77.3
		l-0.04-0.26l0.37-0.05c0.05-0.01,0.08-0.05,0.08-0.1c-0.01-0.05-0.05-0.08-0.1-0.08l-0.37,0.05l-0.04-0.25l0.85-0.68l0.24,0.09
		l-0.13,0.35c-0.02,0.05,0.01,0.1,0.05,0.12c0.02,0.01,0.03,0.01,0.05,0.01c0.03,0,0.06-0.03,0.07-0.06l0.13-0.35l0.25,0.1
		l0.37,0.84c0.02,0.04,0.06,0.06,0.1,0.05c0.01,0,0.02,0,0.02-0.01c0.05-0.02,0.07-0.07,0.05-0.12l-0.29-0.67l0.57,0.22l0.25,0.56
		c0.02,0.04,0.06,0.06,0.1,0.05c0,0,0.01,0,0.01,0l0.76-0.2c0.03-0.01,0.05-0.03,0.06-0.06C38.3,76.82,38.29,76.79,38.28,76.77z
		 M36.91,73.06l0.58-0.02l-0.15,0.56l-0.48-0.06L36.91,73.06z M33.97,71.63l0.41,0.41l-0.29,0.39l-0.39-0.29L33.97,71.63z
		 M31.3,74.51l-0.31-0.49l0.56-0.15l0.2,0.44L31.3,74.51z M32.12,77.72l-0.58,0.02l0.15-0.56l0.48,0.06L32.12,77.72z M35.08,79.14
		l-0.41-0.41l0.29-0.39l0.39,0.29L35.08,79.14z M35.52,75.68l-0.82-0.32l0.69-0.55L35.52,75.68z M35.28,74.67l-0.69,0.55l-0.13-0.87
		L35.28,74.67z M34.28,74.37l0.13,0.88l-0.83-0.32L34.28,74.37z M33.53,75.11l0.81,0.31l-0.68,0.54L33.53,75.11z M33.77,76.1
		l0.68-0.54l0.13,0.86L33.77,76.1z M34.76,76.39l-0.13-0.86l0.81,0.31L34.76,76.39z M37.5,76.91l-0.2-0.44l0.44-0.2l0.31,0.49
		L37.5,76.91z"/>
	<radialGradient id="XMLID_17_" cx="71.7391" cy="76.1607" r="5.3687" gradientUnits="userSpaceOnUse">
		<stop  offset="0" style="stop-color:#D0EBFC"/>
		<stop  offset="1" style="stop-color:#FFFFFF"/>
	</radialGradient>
	<path id="XMLID_1411_" class="st21" d="M76.93,78.07l-0.58-0.91c-0.03-0.05-0.1-0.07-0.16-0.05l-0.78,0.34l-0.8-0.31l0.95-0.42
		c0.06-0.03,0.09-0.1,0.06-0.17c-0.03-0.06-0.1-0.09-0.17-0.06l-1.18,0.52l-0.32-0.12l0.18-0.48c0.03-0.07-0.01-0.14-0.07-0.16
		s-0.14,0.01-0.16,0.07l-0.18,0.48l-0.33-0.13l-0.22-1.48l0.27-0.21l0.32,0.4c0.03,0.04,0.07,0.05,0.12,0.05
		c0.02,0,0.04-0.01,0.06-0.03c0.05-0.04,0.06-0.12,0.02-0.18l-0.32-0.4l0.29-0.23l1.25,0.15c0.01,0,0.02,0,0.03,0
		c0.06-0.01,0.1-0.05,0.11-0.11c0.01-0.07-0.04-0.13-0.11-0.14l-1-0.12l0.66-0.52l0.84,0.1c0.01,0,0.02,0,0.03,0
		c0.05-0.01,0.09-0.04,0.1-0.09l0.29-1.04c0.01-0.04,0-0.08-0.02-0.11c-0.03-0.03-0.06-0.05-0.1-0.05l-1.08,0.04
		c-0.06,0-0.11,0.05-0.12,0.11l-0.1,0.84l-0.67,0.53l0.12-1.03c0.01-0.07-0.04-0.13-0.11-0.14c-0.07-0.01-0.13,0.04-0.14,0.11
		l-0.15,1.29l-0.27,0.21l-0.32-0.4c-0.04-0.05-0.12-0.06-0.18-0.02c-0.05,0.04-0.06,0.12-0.02,0.18l0.32,0.4l-0.26,0.21l-1.4-0.56
		l-0.05-0.35l0.51-0.07c0.07-0.01,0.12-0.07,0.11-0.14c-0.01-0.07-0.07-0.12-0.14-0.11l-0.51,0.07l-0.05-0.36l0.75-1.01
		c0.04-0.06,0.03-0.14-0.03-0.18c-0.06-0.04-0.14-0.03-0.18,0.03l-0.6,0.81l-0.12-0.83l0.51-0.68c0.04-0.05,0.03-0.12-0.01-0.16
		l-0.76-0.77c-0.03-0.03-0.07-0.04-0.11-0.04c-0.04,0.01-0.07,0.03-0.09,0.07l-0.5,0.95c-0.03,0.06-0.01,0.12,0.04,0.16l0.68,0.51
		l0.13,0.85l-0.84-0.62c-0.06-0.04-0.14-0.03-0.18,0.03c-0.04,0.06-0.03,0.14,0.03,0.18l1.04,0.77l0.05,0.34l-0.51,0.07
		c-0.07,0.01-0.12,0.07-0.11,0.14c0.01,0.07,0.07,0.12,0.14,0.11l0.51-0.07l0.05,0.35l-1.2,0.95l-0.31-0.12l0.18-0.48
		c0.03-0.07-0.01-0.14-0.07-0.16c-0.07-0.03-0.14,0.01-0.16,0.07l-0.18,0.48l-0.32-0.12l-0.52-1.18c-0.03-0.06-0.1-0.09-0.17-0.06
		c-0.06,0.03-0.09,0.1-0.06,0.17l0.42,0.95l-0.8-0.31l-0.34-0.78c-0.03-0.06-0.09-0.09-0.15-0.07l-1.04,0.28
		c-0.04,0.01-0.07,0.04-0.09,0.08c-0.01,0.04-0.01,0.08,0.01,0.11l0.58,0.91c0.03,0.04,0.08,0.06,0.13,0.06c0.01,0,0.02,0,0.03-0.01
		l0.78-0.34l0.78,0.3l-0.92,0.41c-0.06,0.03-0.09,0.1-0.06,0.17c0.02,0.05,0.08,0.08,0.13,0.07c0.01,0,0.02,0,0.03-0.01l1.15-0.51
		l0.34,0.13l-0.18,0.48c-0.03,0.07,0.01,0.14,0.07,0.16c0.02,0.01,0.04,0.01,0.06,0.01c0.04-0.01,0.08-0.04,0.1-0.08l0.18-0.48
		l0.34,0.13l0.22,1.46l-0.28,0.22l-0.32-0.4c-0.04-0.05-0.12-0.06-0.18-0.02c-0.05,0.04-0.06,0.12-0.02,0.18l0.32,0.4l-0.27,0.21
		l-1.29-0.15c-0.07-0.01-0.13,0.04-0.14,0.11c-0.01,0.07,0.04,0.13,0.11,0.14l1.03,0.12l-0.67,0.53l-0.84-0.1
		c-0.06-0.01-0.12,0.03-0.14,0.09l-0.29,1.04c-0.01,0.04,0,0.08,0.02,0.11s0.06,0.05,0.1,0.05l1.08-0.04c0,0,0.01,0,0.01,0
		c0.06-0.01,0.1-0.05,0.11-0.11l0.1-0.84l0.66-0.52l-0.12,1c-0.01,0.07,0.04,0.13,0.11,0.14c0.01,0,0.02,0,0.03,0
		c0.06-0.01,0.1-0.05,0.11-0.11l0.15-1.25l0.29-0.23l0.32,0.4c0.03,0.04,0.07,0.05,0.12,0.05c0.02,0,0.04-0.01,0.06-0.03
		c0.05-0.04,0.06-0.12,0.02-0.18l-0.32-0.4l0.28-0.22l1.39,0.55l0.05,0.35l-0.51,0.07c-0.07,0.01-0.12,0.07-0.11,0.14
		c0.01,0.07,0.07,0.12,0.14,0.11l0.51-0.07l0.05,0.34l-0.77,1.04c-0.04,0.06-0.03,0.14,0.03,0.18c0.03,0.02,0.06,0.03,0.09,0.02
		c0.03,0,0.06-0.02,0.08-0.05l0.62-0.84l0.13,0.85l-0.51,0.68c-0.04,0.05-0.03,0.12,0.01,0.16l0.76,0.77
		c0.03,0.03,0.07,0.04,0.11,0.04c0.04-0.01,0.07-0.03,0.09-0.07l0.5-0.95c0.03-0.06,0.01-0.12-0.04-0.16l-0.68-0.51l-0.12-0.83
		l0.81,0.6c0.03,0.02,0.06,0.03,0.09,0.02c0.03,0,0.06-0.02,0.08-0.05c0.04-0.06,0.03-0.14-0.03-0.18l-1.01-0.75l-0.05-0.36
		l0.51-0.07c0.07-0.01,0.12-0.07,0.11-0.14c-0.01-0.07-0.07-0.12-0.14-0.11l-0.51,0.07l-0.05-0.35l1.18-0.93l0.33,0.13l-0.18,0.48
		c-0.03,0.07,0.01,0.14,0.07,0.16c0.02,0.01,0.04,0.01,0.06,0.01c0.04-0.01,0.08-0.04,0.1-0.08l0.18-0.48l0.34,0.13l0.51,1.15
		c0.02,0.05,0.08,0.08,0.13,0.07c0.01,0,0.02,0,0.03-0.01c0.06-0.03,0.09-0.1,0.06-0.17l-0.41-0.92l0.78,0.3l0.34,0.78
		c0.02,0.05,0.08,0.08,0.13,0.07c0,0,0.01,0,0.01,0l1.04-0.28c0.04-0.01,0.07-0.04,0.09-0.08C76.96,78.15,76.95,78.11,76.93,78.07z
		 M75.05,72.95l0.8-0.03l-0.21,0.77l-0.66-0.08L75.05,72.95z M70.98,70.98l0.56,0.57l-0.4,0.54l-0.54-0.4L70.98,70.98z M67.28,74.95
		l-0.43-0.67l0.77-0.21l0.27,0.61L67.28,74.95z M68.43,79.39l-0.8,0.03l0.21-0.77l0.66,0.08L68.43,79.39z M72.51,81.34l-0.56-0.57
		l0.4-0.54l0.54,0.4L72.51,81.34z M73.12,76.57l-1.13-0.44l0.95-0.75L73.12,76.57z M72.79,75.18l-0.95,0.76l-0.18-1.2L72.79,75.18z
		 M71.41,74.76l0.18,1.21l-1.15-0.44L71.41,74.76z M70.37,75.78l1.12,0.43l-0.94,0.75L70.37,75.78z M70.71,77.15l0.94-0.75
		l0.18,1.19L70.71,77.15z M72.08,77.56l-0.17-1.19l1.12,0.43L72.08,77.56z M75.85,78.27l-0.27-0.61l0.61-0.27l0.43,0.67L75.85,78.27
		z"/>
	<radialGradient id="XMLID_18_" cx="55.3931" cy="82.3762" r="4.3298" gradientUnits="userSpaceOnUse">
		<stop  offset="0" style="stop-color:#D0EBFC"/>
		<stop  offset="1" style="stop-color:#FFFFFF"/>
	</radialGradient>
	<path id="XMLID_1397_" class="st22" d="M59.58,83.92l-0.47-0.73c-0.03-0.04-0.08-0.06-0.13-0.04l-0.63,0.28l-0.65-0.25l0.77-0.34
		c0.05-0.02,0.08-0.08,0.05-0.13c-0.02-0.05-0.08-0.08-0.13-0.05l-0.95,0.42l-0.26-0.1l0.15-0.38c0.02-0.05-0.01-0.11-0.06-0.13
		c-0.05-0.02-0.11,0.01-0.13,0.06l-0.15,0.38l-0.26-0.1l-0.18-1.19l0.22-0.17l0.26,0.32c0.02,0.03,0.06,0.04,0.1,0.04
		c0.02,0,0.03-0.01,0.05-0.02c0.04-0.04,0.05-0.1,0.02-0.14l-0.26-0.32l0.23-0.18l1.01,0.12c0.01,0,0.02,0,0.03,0
		c0.04-0.01,0.08-0.04,0.09-0.09c0.01-0.06-0.03-0.11-0.09-0.11l-0.81-0.09l0.53-0.42l0.68,0.08c0.01,0,0.02,0,0.03,0
		c0.04-0.01,0.07-0.03,0.08-0.07l0.23-0.84c0.01-0.03,0-0.07-0.02-0.09c-0.02-0.03-0.05-0.04-0.08-0.04l-0.87,0.03
		c-0.05,0-0.09,0.04-0.1,0.09l-0.08,0.68l-0.54,0.43l0.1-0.83c0.01-0.06-0.03-0.11-0.09-0.11c-0.06-0.01-0.11,0.03-0.11,0.09
		l-0.12,1.04l-0.22,0.17l-0.26-0.32c-0.04-0.04-0.1-0.05-0.14-0.02c-0.04,0.04-0.05,0.1-0.02,0.14l0.26,0.32l-0.21,0.17l-1.13-0.45
		l-0.04-0.28l0.41-0.06c0.06-0.01,0.09-0.06,0.09-0.12c-0.01-0.06-0.06-0.09-0.12-0.09l-0.41,0.06l-0.04-0.29l0.61-0.82
		c0.03-0.05,0.02-0.11-0.02-0.14c-0.05-0.03-0.11-0.02-0.14,0.02l-0.49,0.65l-0.1-0.67l0.41-0.55c0.03-0.04,0.03-0.1-0.01-0.13
		l-0.61-0.62c-0.02-0.02-0.06-0.03-0.09-0.03c-0.03,0-0.06,0.02-0.08,0.05l-0.41,0.77c-0.02,0.04-0.01,0.1,0.03,0.13l0.55,0.41
		l0.1,0.69l-0.67-0.5c-0.05-0.03-0.11-0.02-0.14,0.02c-0.03,0.05-0.02,0.11,0.02,0.14l0.84,0.62l0.04,0.28l-0.41,0.06
		c-0.06,0.01-0.09,0.06-0.09,0.12c0.01,0.06,0.06,0.09,0.12,0.09l0.41-0.06l0.04,0.28l-0.97,0.77l-0.25-0.1l0.15-0.38
		c0.02-0.05-0.01-0.11-0.06-0.13c-0.05-0.02-0.11,0.01-0.13,0.06l-0.15,0.38l-0.26-0.1L53,80.56c-0.02-0.05-0.08-0.07-0.13-0.05
		c-0.05,0.02-0.08,0.08-0.05,0.13l0.34,0.77l-0.65-0.25l-0.28-0.63c-0.02-0.05-0.07-0.07-0.12-0.06l-0.84,0.23
		c-0.03,0.01-0.06,0.03-0.07,0.06c-0.01,0.03-0.01,0.06,0.01,0.09l0.47,0.73c0.02,0.03,0.06,0.05,0.1,0.05c0.01,0,0.02,0,0.03-0.01
		l0.63-0.28l0.63,0.24l-0.74,0.33c-0.05,0.02-0.08,0.08-0.05,0.13c0.02,0.04,0.06,0.07,0.11,0.06c0.01,0,0.02,0,0.03-0.01l0.93-0.41
		l0.28,0.11l-0.15,0.38c-0.02,0.05,0.01,0.11,0.06,0.13c0.02,0.01,0.03,0.01,0.05,0.01c0.04-0.01,0.07-0.03,0.08-0.06l0.15-0.38
		l0.27,0.11l0.17,1.18l-0.23,0.18l-0.26-0.32c-0.04-0.04-0.1-0.05-0.14-0.02c-0.04,0.03-0.05,0.1-0.02,0.14l0.26,0.32l-0.22,0.17
		l-1.04-0.12c-0.06-0.01-0.11,0.03-0.11,0.09c-0.01,0.06,0.03,0.11,0.09,0.11l0.83,0.1l-0.54,0.43l-0.68-0.08
		c-0.05-0.01-0.1,0.03-0.11,0.07l-0.23,0.84c-0.01,0.03,0,0.07,0.02,0.09c0.02,0.03,0.05,0.04,0.08,0.04l0.87-0.03
		c0,0,0.01,0,0.01,0c0.05-0.01,0.08-0.04,0.09-0.09L53,84.41l0.53-0.42l-0.09,0.81c-0.01,0.06,0.03,0.11,0.09,0.11
		c0.01,0,0.02,0,0.03,0c0.04-0.01,0.08-0.04,0.09-0.09l0.12-1.01l0.23-0.18l0.26,0.32c0.02,0.03,0.06,0.04,0.1,0.04
		c0.02,0,0.03-0.01,0.05-0.02c0.04-0.04,0.05-0.1,0.02-0.14l-0.26-0.32l0.23-0.18l1.12,0.44l0.04,0.28l-0.41,0.06
		c-0.06,0.01-0.09,0.06-0.09,0.12c0.01,0.06,0.06,0.09,0.12,0.09l0.41-0.06l0.04,0.28l-0.62,0.84c-0.03,0.05-0.02,0.11,0.02,0.14
		c0.02,0.02,0.05,0.02,0.08,0.02c0.03,0,0.05-0.02,0.07-0.04l0.5-0.67l0.1,0.69l-0.41,0.55c-0.03,0.04-0.03,0.1,0.01,0.13l0.61,0.62
		c0.02,0.02,0.06,0.03,0.09,0.03c0.03,0,0.06-0.02,0.08-0.05L56.53,86c0.02-0.04,0.01-0.1-0.03-0.13l-0.55-0.41l-0.1-0.67l0.65,0.49
		c0.02,0.02,0.05,0.02,0.08,0.02c0.03,0,0.05-0.02,0.07-0.04c0.03-0.05,0.02-0.11-0.02-0.14l-0.82-0.61l-0.04-0.29l0.41-0.06
		c0.06-0.01,0.09-0.06,0.09-0.12c-0.01-0.06-0.06-0.09-0.12-0.09l-0.41,0.06l-0.04-0.28l0.95-0.75l0.26,0.1l-0.15,0.38
		c-0.02,0.05,0.01,0.11,0.06,0.13c0.02,0.01,0.03,0.01,0.05,0.01c0.04-0.01,0.07-0.03,0.08-0.06l0.15-0.38l0.28,0.11l0.41,0.93
		c0.02,0.04,0.06,0.07,0.11,0.06c0.01,0,0.02,0,0.03-0.01c0.05-0.02,0.08-0.08,0.05-0.13l-0.33-0.74l0.63,0.24l0.28,0.63
		c0.02,0.04,0.06,0.07,0.11,0.06c0,0,0.01,0,0.01,0l0.84-0.23c0.03-0.01,0.06-0.03,0.07-0.06C59.6,83.98,59.6,83.94,59.58,83.92z
		 M58.06,79.79l0.64-0.02l-0.17,0.62L58,80.32L58.06,79.79z M54.78,78.2l0.45,0.46l-0.32,0.43l-0.43-0.32L54.78,78.2z M51.8,81.4
		l-0.35-0.54l0.62-0.17l0.22,0.49L51.8,81.4z M52.72,84.98l-0.64,0.02l0.17-0.62l0.53,0.06L52.72,84.98z M56.01,86.56l-0.45-0.46
		l0.32-0.43l0.43,0.32L56.01,86.56z M56.51,82.71l-0.91-0.35l0.77-0.61L56.51,82.71z M56.24,81.58l-0.77,0.61l-0.14-0.97
		L56.24,81.58z M55.13,81.25l0.14,0.98l-0.93-0.36L55.13,81.25z M54.29,82.07l0.9,0.35l-0.76,0.6L54.29,82.07z M54.56,83.17
		l0.76-0.6l0.14,0.96L54.56,83.17z M55.67,83.5l-0.14-0.96l0.91,0.35L55.67,83.5z M58.71,84.08l-0.22-0.49l0.49-0.22l0.35,0.54
		L58.71,84.08z"/>
</g>
</svg>
