<?xml version="1.0" encoding="utf-8"?>
<!-- Generator: Adobe Illustrator 25.2.0, SVG Export Plug-In . SVG Version: 6.00 Build 0)  -->
<svg version="1.1" id="Layer_1" xmlns="http://www.w3.org/2000/svg" xmlns:xlink="http://www.w3.org/1999/xlink" x="0px" y="0px"
	 viewBox="0 0 87.8 87.8" style="enable-background:new 0 0 87.8 87.8;" xml:space="preserve">
<style type="text/css">
	.st0{fill:#F39200;}
	.st1{fill:url(#XMLID_2_);}
	.st2{fill:url(#XMLID_3_);}
	.st3{fill:url(#XMLID_4_);}
	.st4{fill:url(#XMLID_5_);}
	.st5{fill:url(#XMLID_6_);}
</style>
<g id="XMLID_1832_">
	<g id="XMLID_1837_">
		<polygon id="XMLID_1840_" class="st0" points="14.19,14.19 26.32,13.45 33.02,3.31 43.9,8.75 54.77,3.31 61.48,13.45 73.61,14.19 
			74.35,26.32 84.49,33.02 79.05,43.9 84.49,54.77 74.35,61.48 73.61,73.61 61.48,74.35 54.77,84.49 43.9,79.05 33.02,84.49 
			26.32,74.35 14.19,73.61 13.45,61.48 3.31,54.77 8.75,43.9 3.31,33.02 13.45,26.32 		"/>
		
			<linearGradient id="XMLID_2_" gradientUnits="userSpaceOnUse" x1="815.9298" y1="-2880.9275" x2="897.3925" y2="-2880.9275" gradientTransform="matrix(0.7071 0.7071 -0.7071 0.7071 -2599.5981 1474.6097)">
			<stop  offset="0.017" style="stop-color:#FEC823"/>
			<stop  offset="0.2379" style="stop-color:#F9B233"/>
			<stop  offset="0.7876" style="stop-color:#F39200"/>
			<stop  offset="0.9796" style="stop-color:#EE7402"/>
		</linearGradient>
		<polygon id="XMLID_1839_" class="st1" points="0,43.9 8.41,34.39 5.88,21.94 17.93,17.93 21.94,5.88 34.39,8.41 43.9,0 
			53.41,8.41 65.85,5.88 69.87,17.93 81.92,21.94 79.38,34.39 87.8,43.9 79.38,53.41 81.92,65.85 69.87,69.87 65.85,81.92 
			53.41,79.38 43.9,87.8 34.39,79.38 21.94,81.92 17.93,69.87 5.88,65.85 8.41,53.41 		"/>
		<radialGradient id="XMLID_3_" cx="38.3681" cy="38.6488" r="38.0489" gradientUnits="userSpaceOnUse">
			<stop  offset="0.0333" style="stop-color:#FFE18A"/>
			<stop  offset="0.3449" style="stop-color:#FEC823"/>
			<stop  offset="0.5538" style="stop-color:#F9B233"/>
			<stop  offset="0.7876" style="stop-color:#F39200"/>
			<stop  offset="0.9796" style="stop-color:#EE7402"/>
		</radialGradient>
		<circle id="XMLID_1838_" class="st2" cx="43.9" cy="43.9" r="33.25"/>
	</g>
	<g id="XMLID_1833_">
		<radialGradient id="XMLID_4_" cx="28.4784" cy="36.622" r="2.5446" gradientUnits="userSpaceOnUse">
			<stop  offset="0" style="stop-color:#3C3C3B"/>
			<stop  offset="1" style="stop-color:#000000"/>
		</radialGradient>
		<path id="XMLID_1836_" class="st3" d="M30.09,37.56c0,1.41-1.14,2.54-2.54,2.54c-1.41,0-2.54-1.14-2.54-2.54
			c0-1.41,1.14-2.54,2.54-2.54C28.95,35.02,30.09,36.15,30.09,37.56z"/>
		<radialGradient id="XMLID_5_" cx="60.9939" cy="36.4211" r="2.5446" gradientUnits="userSpaceOnUse">
			<stop  offset="0" style="stop-color:#3C3C3B"/>
			<stop  offset="1" style="stop-color:#000000"/>
		</radialGradient>
		<path id="XMLID_1835_" class="st4" d="M62.8,37.56c0,1.41-1.14,2.54-2.54,2.54c-1.41,0-2.54-1.14-2.54-2.54
			c0-1.41,1.14-2.54,2.54-2.54C61.66,35.02,62.8,36.15,62.8,37.56z"/>
		<radialGradient id="XMLID_6_" cx="43.7642" cy="50.6757" r="7.4565" gradientUnits="userSpaceOnUse">
			<stop  offset="0.2927" style="stop-color:#3C3C3B"/>
			<stop  offset="1" style="stop-color:#000000"/>
		</radialGradient>
		<path id="XMLID_1834_" class="st5" d="M43.9,52.78c2.48,0,4.49-2.01,4.49-4.49h-8.99C39.41,50.77,41.42,52.78,43.9,52.78z"/>
	</g>
</g>
</svg>
